<svg id="Layer_1" xmlns="http://www.w3.org/2000/svg" width="218" height="64" viewBox="-56 169 218 64"><style>.st0{fill:#231f20}.st1{fill:#009ddc}.st2{fill:#fff}</style><path class="st0" d="M20.5 216.9V214l1.7-.4v-16.1l-1.7-.4v-2.9h10c1.5 0 2.7.2 3.7.5s1.9.8 2.5 1.5c.7.7 1.1 1.6 1.4 2.7.3 1.1.4 2.4.4 4v5.5c0 1.6-.1 2.9-.4 4-.3 1.1-.8 2-1.4 2.7-.7.7-1.5 1.2-2.5 1.5-1 .3-2.3.5-3.7.5h-10v-.2zm13-14.3c0-1.9-.3-3.2-.8-3.9-.5-.7-1.3-1.1-2.4-1.1H27v15.8h3.3c.5 0 1-.1 1.4-.3.4-.2.7-.4 1-.8s.4-.9.6-1.5c.1-.6.2-1.4.2-2.4v-5.8zm6.4 14.3V214l1.7-.4v-10.2l-1.7-.4v-3h6.2v13.5l1.7.4v2.9l-7.9.1zm1.7-18.9v-4.1h4.5v4.1h-4.5zm21.7 14.7c0 .9-.2 1.6-.5 2.2-.4.6-.9 1.1-1.5 1.5-.7.4-1.4.6-2.3.8-.9.2-1.9.2-3 .2-1.5 0-2.9-.2-4-.5s-2.1-.7-2.8-1.2v-4.4h3.4l.3 2.1c.9.5 1.8.7 2.9.7 1.1 0 2-.1 2.6-.4.6-.2.9-.7.9-1.5 0-.6-.1-.9-.3-1.2-.2-.2-.5-.4-.8-.5-.2-.1-.4-.1-.6-.2-.2 0-.5-.1-.8-.1s-.7-.1-1.1-.1c-.4-.1-.9-.1-1.5-.2-.8-.1-1.6-.3-2.2-.5s-1.1-.4-1.6-.8c-.4-.3-.7-.7-.9-1.2-.2-.5-.3-1.2-.3-1.9v-1.2c0-.9.2-1.7.6-2.3s.9-1.1 1.5-1.4c.7-.4 1.4-.6 2.3-.8.9-.1 1.8-.2 2.8-.2 1.5 0 2.7.1 3.8.3 1 .2 1.9.6 2.5 1.1v4.4h-3.3l-.3-2.3c-.4-.1-.7-.2-1.1-.3-.4-.1-.8-.1-1.4-.1-.6 0-1.1 0-1.6.1-.4 0-.8.1-1 .3-.3.1-.4.3-.6.6-.1.2-.2.6-.2 1 0 .3 0 .5.1.7.1.2.2.4.4.5.2.1.5.3.8.4.3.1.7.2 1.2.2 1.4.2 2.5.4 3.5.6s1.8.5 2.4.8c.6.3 1.1.8 1.4 1.3.3.5.4 1.3.4 2.1l-.1 1.4zm15.6 1.1c-.7 1.2-1.6 2.1-2.7 2.7-1.1.6-2.3.9-3.7.9-2.6 0-4.5-.6-5.8-1.9-1.2-1.3-1.9-3-1.9-5.3v-3.7c0-1 .1-2 .4-2.8.3-.9.7-1.6 1.3-2.2.6-.6 1.3-1.1 2.3-1.4.9-.3 2-.5 3.3-.5 1.2 0 2.4.1 3.4.4 1.1.3 2 .9 2.8 1.7v4.3H75l-.3-2.2c-.3-.3-.7-.5-1.1-.7-.4-.1-.8-.2-1.3-.2-1.1 0-1.9.3-2.4.9s-.7 1.5-.7 2.8v3.1c0 1.2.3 2.2.8 2.9s1.5 1 2.8 1c.9 0 1.7-.2 2.5-.6s1.3-1 1.8-1.8l1.8 2.6zm16.2-3.6c0 2.5-.6 4.4-1.8 5.5-1.2 1.2-3.1 1.7-5.8 1.7-2.6 0-4.6-.6-5.8-1.7-1.2-1.2-1.8-3-1.8-5.5v-3.4c0-2.5.6-4.3 1.8-5.5s3.1-1.7 5.8-1.7c2.6 0 4.6.6 5.8 1.7 1.2 1.2 1.8 3 1.8 5.5v3.4zm-4.4-3.1c0-.8-.1-1.4-.2-1.9s-.3-.9-.5-1.2c-.2-.3-.6-.5-1-.6-.4-.1-.9-.2-1.5-.2s-1.1.1-1.5.2c-.4.1-.7.3-1 .6-.2.3-.4.7-.5 1.2-.1.5-.2 1.2-.2 1.9v2.8c0 .8.1 1.4.2 2 .1.5.3.9.5 1.2.2.3.6.5 1 .6s.9.2 1.5.2 1.1-.1 1.5-.2.7-.3 1-.6c.2-.3.4-.7.5-1.2.1-.5.2-1.2.2-2v-2.8zm11 9.8l-4.6-13.6-1.3-.3v-3h7.6v2.9l-1.3.3 3 10 3.2-10-1.3-.3V200h6.3v2.9l-1.4.3-4.6 13.6-5.6.1zm16.3-7.2c0 .8.1 1.4.2 1.9s.3 1 .7 1.3c.3.3.7.6 1.2.7s1.2.2 1.9.2c1.2 0 2.1-.2 2.8-.5.7-.3 1.2-.8 1.7-1.4l1.6 2.6c-.5.9-1.3 1.6-2.3 2.1-1.1.5-2.5.8-4.3.8-1.4 0-2.5-.2-3.5-.6s-1.8-.9-2.4-1.6c-.6-.7-1.1-1.5-1.4-2.4-.3-.9-.4-1.9-.4-3.1v-2.5c0-1.3.1-2.4.4-3.4.3-1 .7-1.8 1.2-2.4.6-.6 1.3-1.1 2.3-1.4.9-.3 2.1-.5 3.5-.5 1.5 0 2.7.2 3.6.5.9.3 1.7.8 2.2 1.5.5.7.9 1.5 1.1 2.5.2 1 .3 2.2.3 3.5v2.1l-10.4.1zm6-2.9c0-.6 0-1.1-.1-1.6s-.2-.9-.4-1.3-.5-.7-.9-.9-.9-.3-1.6-.3c-.7 0-1.2.1-1.6.3-.4.2-.7.5-.9.9-.2.4-.4.8-.4 1.3-.1.5-.1 1.1-.1 1.7l6-.1zm5.4 10.1V214l1.7-.4v-10.2l-1.7-.4v-3h5.7l.2 2c.6-.7 1.4-1.3 2.3-1.8.9-.4 1.9-.6 3.2-.6h1l-.6 4.3c-.4-.1-.9-.1-1.4-.1-.7 0-1.5.1-2.1.3-.7.2-1.3.6-2 1.2v8.2l1.9.4v2.9l-8.2.1zm15-13.6l-1.4-.3v-3h7.5v3l-1.3.3 3 9.6 3.2-9.6-1.3-.3v-3h6.3v3l-1.4.3-5.6 14.9c-.3.9-.7 1.7-1.1 2.5-.4.8-.8 1.4-1.3 2-.5.6-1.1 1-1.7 1.3-.7.3-1.5.5-2.4.5-1.8 0-3.1-.5-4.2-1.6l1.2-3.3c.3.3.7.5 1.1.7.4.2.9.2 1.5.2.7 0 1.3-.2 1.8-.7.4-.4.8-1 1.1-1.8l.2-.6-5.2-14.1z"/><path class="st1" d="M18.4 215.1h-1.1l-.2-.7h-6v1.2l2 .2v1.1H9.7V210h3.4v1.1l-2 .2v1.2h6l.2-.7h1.1v3.3zm0-10.5h-1.1l-.2-.6h-2.5v2.5h2.5l.2-.6h1.1v3.1h-1.1l-.2-.6h-6.2l-.1.6H9.7v-3.1h1.1l.2.6h2.4V204H11l-.2.6H9.7v-3.1h1.1l.2.7h6.1l.2-.7h1.1v3.1zm0-4.1h-1.1l-.2-.7h-6.2l-.2.6H9.6v-6.2h2.5v1.1l-1.1.2v2.4h2.2v-2l-.7-.2v-.9h2.6v.9l-.7.2v2h2.5v-2.5l-1.3-.2v-1.1h2.7l.1 6.4z"/><path class="st2" d="M-25.5 196.6H-52c-1.4 0-2.7.5-3.7 1.2v12.3c0 3.8 3 6.8 6.8 6.8H-19V203c0-3.5-2.9-6.4-6.5-6.4z"/><path class="st1" d="M-1.6 170.7h-47.2c-3.7 0-6.8 3-6.8 6.8v19.9c1.1-.7 2.4-1.1 3.7-1.1h26.5c3.8 0 6.8 3.1 6.8 6.8V217h17c3.8 0 6.8-3 6.8-6.8v-32.6c0-3.8-3-6.9-6.8-6.9z"/><path class="st0" d="M-17.4 203v13.9h-3.2V203c0-2.7-2.2-4.8-4.8-4.8H-52c-1.5 0-2.9.7-3.7 1.8v-4c1.1-.6 2.4-.9 3.7-.9h26.5c4.5-.1 8.1 3.5 8.1 7.9zm-14.8 3.2c0 2.2 1.8 4 4 4s4-1.8 4-4-1.8-4-4-4-4 1.8-4 4zm-14.1 0c0 2.2 1.8 4 4 4s4-1.8 4-4-1.8-4-4-4c-2.3 0-4 1.8-4 4z"/><path class="st2" d="M5.2 177.4v-.4c-1.2-1.1-2.8-1.8-4.6-1.9-2.1-.1-4 .8-5.3 2.1-1.7-1.4-3.9-2.1-6-1.6-2.4.5-4.1 2.4-4.8 4.8-2.4.4-4.3 2.4-4.4 5-.1 2.9 2.1 5.3 5 5.4.7 0 1.3-.1 1.9-.3 1.4 2.6 4 4.4 7.2 4.5 2.5.1 4.8-.9 6.5-2.6.7.3 1.4.6 2.3.6.8 0 1.6-.1 2.3-.4l-.1-15.2z"/><path class="st0" d="M-42.7 229v-.7l.6-.1v-4.9h-1.1l-.1 1.7h-.7v-2.6h5v2.6h-.7l-.1-1.7h-1.1v4.9l.6.1v.7h-2.4zm5.3-2c0 .5.1.9.3 1.1.2.2.5.3 1 .3.4 0 .6-.1.8-.2.2-.1.4-.3.5-.5l.4.6c-.1.3-.4.5-.7.6-.3.1-.7.2-1.2.2-.4 0-.7-.1-1-.2-.3-.1-.5-.3-.7-.5-.2-.2-.3-.4-.4-.7-.1-.3-.1-.6-.1-.9v-.7c0-.4 0-.7.1-1 .1-.3.2-.5.4-.7.2-.2.4-.3.6-.4.3-.1.6-.1 1-.1s.8 0 1 .1c.3.1.5.2.6.4.1.2.2.4.3.7.1.3.1.6.1 1v.9h-3zm2.1-.7v-.6c0-.2-.1-.3-.1-.5-.1-.1-.2-.2-.4-.2-.1-.1-.3-.1-.6-.1-.2 0-.4 0-.6.1-.1.1-.3.2-.3.3-.1.1-.1.3-.2.5v.6l2.2-.1zm1.7 2.7v-.7l.5-.1V225h-.5v-.7h1.5v.7c.2-.3.4-.5.7-.6.3-.1.6-.2 1-.2h.3l-.1 1h-.4c-.3 0-.5 0-.8.1-.2.1-.5.3-.7.5v2.6l.6.1v.7l-2.1-.2zm4.1 0v-.7l.5-.1V225h-.5v-.7h1.5v.7c.2-.3.4-.5.7-.6.3-.1.6-.2 1-.2h.3l-.1 1h-.4c-.3 0-.5 0-.8.1-.2.1-.5.3-.7.5v2.6l.6.1v.7l-2.1-.2zm5 1.3c.2 0 .4-.1.5-.2.1-.1.3-.3.4-.6l.1-.3-1.5-4.2h-.5v-.7h2v.7h-.4l1 3.2 1-3.2h-.4v-.7h1.8v.7h-.5l-1.6 4.4c-.1.3-.2.6-.3.8s-.2.4-.4.6c-.1.2-.3.3-.5.4-.2.1-.4.1-.7.1-.5 0-.9-.1-1.1-.4l.3-.8c.1.1.2.2.3.2h.5zm6.3-1.3v-.7l.5-.1v-5l-.5-.1v-.7h2.3v.7l-.6.1v4.9h1.9l.1-1.7h.7v2.6h-4.4zm6.1-2c0 .5.1.9.3 1.1.2.2.5.3 1 .3.4 0 .6-.1.8-.2.2-.1.4-.3.5-.5l.4.6c-.1.3-.4.5-.7.6-.3.1-.7.2-1.2.2-.4 0-.7-.1-1-.2-.3-.1-.5-.3-.7-.5s-.3-.4-.4-.7c-.1-.3-.1-.6-.1-.9v-.7c0-.4 0-.7.1-1 .1-.3.2-.5.4-.7s.4-.3.6-.4c.3-.1.6-.1 1-.1s.8 0 1 .1c.3.1.5.2.6.4s.2.4.3.7c.1.3.1.6.1 1v.9h-3zm2.2-.7v-.6c0-.2-.1-.3-.1-.5l-.3-.3c-.1-.1-.3-.1-.6-.1-.2 0-.4 0-.6.1-.1.1-.3.2-.3.3-.1.1-.1.3-.2.5v.6h2.1zm2.7.7c0 .5.1.9.3 1.1.2.2.5.3 1 .3.4 0 .6-.1.8-.2.2-.1.4-.3.5-.5l.4.6c-.1.3-.4.5-.7.6-.3.1-.7.2-1.2.2-.4 0-.7-.1-1-.2-.3-.1-.5-.3-.7-.5-.2-.2-.3-.4-.4-.7-.1-.3-.1-.6-.1-.9v-.7c0-.4 0-.7.1-1 .1-.3.2-.5.4-.7.2-.2.4-.3.6-.4.3-.1.6-.1 1-.1s.8 0 1 .1c.3.1.5.2.6.4.1.2.2.4.3.7.1.3.1.6.1 1v.9h-3zm2.1-.7v-.6c0-.2-.1-.3-.1-.5l-.3-.3c-.1-.1-.3-.1-.6-.1-.2 0-.4 0-.6.1-.1.1-.3.2-.3.3-.1.1-.1.3-.2.5v.6h2.1zm8.3 2.7l-1-4.7-1.1 4.7H-.2l-1-5.8-.5-.1v-.7H.5v.7l-.5.2.6 4.4 1.2-5.2h1l1.1 5.2.6-4.4-.5-.1v-.7h2v.7l-.5.1-1 5.8H3.2zm4.1-2c0 .5.1.9.3 1.1.2.2.5.3 1 .3.4 0 .6-.1.8-.2.2-.1.4-.3.5-.5l.4.6c-.1.3-.4.5-.7.6-.3.1-.7.2-1.2.2-.4 0-.7-.1-1-.2-.3-.1-.5-.3-.7-.5s-.3-.4-.4-.7c-.1-.3-.1-.6-.1-.9v-.7c0-.4 0-.7.1-1 .1-.3.2-.5.4-.7.2-.2.4-.3.6-.4.3-.1.6-.1 1-.1s.8 0 1 .1c.3.1.5.2.6.4.1.2.2.4.3.7.1.3.1.6.1 1v.9h-3zm2.1-.7v-.6c0-.2-.1-.3-.1-.5-.1-.1-.2-.2-.4-.2-.1-.1-.3-.1-.6-.1-.2 0-.4 0-.6.1-.1.1-.3.2-.3.3-.1.1-.1.3-.2.5v.6l2.2-.1zm1.7 2.7v-.7l.5-.1v-5.1h-.5v-.7h1.6v5.9l.5.1v.7l-2.1-.1zm2.8 0v-.7l.5-.1v-5.1l-.5-.1v-.7h1.6v5.9l.5.1v.7h-2.1zm6.9-1.1c0 .3-.1.5-.2.7s-.2.3-.4.4c-.2.1-.4.2-.7.2-.3 0-.5.1-.8.1-.4 0-.8 0-1.1-.1-.3-.1-.6-.2-.8-.4v-1.3h.8l.1.7c.3.2.6.3 1 .3s.7 0 .9-.1c.2-.1.3-.3.3-.5v-.1c0-.2 0-.3-.1-.4-.1-.1-.2-.1-.4-.2-.2 0-.4-.1-.6-.1-.2 0-.5-.1-.8-.1-.4-.1-.6-.2-.8-.4-.2-.2-.3-.5-.3-.9v-.2c0-.3.1-.5.2-.7s.3-.3.4-.4c.2-.1.4-.2.6-.2s.5-.1.8-.1c.4 0 .8 0 1.1.1.3.1.5.2.7.3v1.3h-.8l-.2-.8c-.1-.1-.2-.1-.4-.1h-.5c-.4 0-.6 0-.8.1-.2.1-.3.2-.3.5v.1c0 .1 0 .2.1.3 0 .1.1.1.3.2.1 0 .3.1.5.1s.3 0 .5.1c.2 0 .3.1.5.1s.3.1.5.1c.3.1.5.2.6.4s.2.4.2.7l-.1.3zm6.4 1.1l-2.7-4.9v4.1l.6.1v.7h-2v-.7l.5-.1v-5l-.5-.1v-.7H25l2.3 4.6v-3.8l-.5-.1v-.7h1.9v.7l-.5.1v5.8h-1zm3-2c0 .5.1.9.3 1.1.2.2.5.3 1 .3.4 0 .6-.1.8-.2.2-.1.4-.3.5-.5l.4.6c-.1.3-.4.5-.7.6-.3.1-.7.2-1.2.2-.4 0-.7-.1-1-.2-.3-.1-.5-.3-.7-.5s-.3-.4-.4-.7c-.1-.3-.1-.6-.1-.9v-.7c0-.4 0-.7.1-1 .1-.3.2-.5.4-.7.2-.2.4-.3.6-.4.3-.1.6-.1 1-.1s.8 0 1 .1c.3.1.5.2.6.4.1.2.2.4.3.7.1.3.1.6.1 1v.9h-3zm2.1-.7v-.6c0-.2-.1-.3-.1-.5l-.3-.3c-.1-.1-.3-.1-.6-.1-.2 0-.4 0-.6.1-.1.1-.3.2-.3.3-.1.1-.1.3-.2.5v.6h2.1zm3.4 2.7l-1.4-4.1-.5-.1v-.7h2.1v.8l-.5.1 1 3.3 1.1-3.3H37v-.7h1.8v.7l-.5.1-1.4 4.1-1.2-.2zm8.3 0c-.1.2-.3.2-.6.2s-.5-.1-.6-.2c-.1-.1-.2-.4-.3-.7-.1.3-.4.5-.6.6-.3.2-.7.2-1.1.2-.3 0-.5 0-.7-.1-.2-.1-.3-.2-.5-.3-.1-.1-.2-.3-.3-.5-.1-.2-.1-.4-.1-.6v-.4c0-.4.1-.8.3-1 .2-.2.6-.3 1.1-.3.4 0 .7 0 1 .1.3.1.5.1.7.2v-.7c0-.3-.1-.5-.2-.6-.2-.1-.4-.2-.7-.2-.3 0-.5 0-.8.1-.3.1-.5.2-.7.3l-.3-.8c.3-.2.6-.3 1-.4.3-.1.7-.1 1.1-.1.3 0 .6 0 .9.1.2.1.4.1.6.3.1.1.3.3.3.5.1.2.1.4.1.7v2.6c0 .1 0 .2.1.3.1.1.1.1.2.1s.2 0 .2-.1l-.1.7zm-1.6-2c-.1-.1-.3-.1-.5-.2-.2 0-.5-.1-.8-.1-.3 0-.5.1-.6.2-.1.1-.2.3-.2.6v.2c0 .3.1.4.2.6.1.1.3.2.6.2s.6-.1.8-.2c.2-.1.4-.3.5-.4v-.9zm5.6 2v-.6c-.3.3-.5.5-.8.6-.3.1-.6.2-1 .2-.6 0-1-.2-1.2-.5-.2-.3-.4-.9-.4-1.6v-.9c0-.4 0-.7.1-1 .1-.3.2-.5.3-.7.1-.2.3-.3.5-.4.2-.1.5-.1.8-.1.3 0 .6 0 .9.1.3.1.5.2.7.5v-1.5l-.5-.1v-.7H49v5.9l.5.1v.7H48zm-.1-3.5c-.1-.2-.3-.3-.5-.4s-.4-.1-.7-.1c-.4 0-.7.1-.8.3-.2.2-.2.5-.2 1v.8c0 .5.1.8.2 1 .1.2.4.3.7.3.3 0 .5-.1.7-.2s.4-.3.6-.5v-2.2zm6.9 3.5c-.1.2-.3.2-.6.2s-.5-.1-.6-.2c-.1-.1-.2-.4-.3-.7-.1.3-.4.5-.6.6-.3.2-.7.2-1.1.2-.3 0-.5 0-.7-.1-.2-.1-.3-.2-.5-.3-.1-.1-.2-.3-.3-.5-.1-.2-.1-.4-.1-.6v-.4c0-.4.1-.8.3-1 .2-.2.6-.3 1.1-.3.4 0 .7 0 1 .1.3.1.5.1.7.2v-.7c0-.3-.1-.5-.2-.6-.2-.1-.4-.2-.7-.2-.3 0-.5 0-.8.1-.3.1-.5.2-.7.3l-.3-.8c.3-.2.6-.3 1-.4.3-.1.7-.1 1.1-.1.3 0 .6 0 .9.1.2.1.4.1.6.3.1.1.3.3.3.5.1.2.1.4.1.7v2.6c0 .1 0 .2.1.3.1.1.1.1.2.1s.2 0 .2-.1l-.1.7zm-1.6-2c-.1-.1-.3-.1-.5-.2-.2 0-.5-.1-.8-.1-.3 0-.5.1-.6.2s-.2.3-.2.6v.2c0 .3.1.4.2.6.1.1.3.2.6.2s.6-.1.8-.2c.2-.1.4-.3.5-.4v-.9zm4 2v-.7l.5-.1v-5l-.5-.1v-.7H60c.4 0 .8 0 1.1.1.3.1.5.2.7.4s.3.5.4.8c.1.3.1.7.1 1.1v1.6c0 .5 0 .8-.1 1.1-.1.3-.2.6-.4.8-.2.2-.4.3-.7.4-.3.1-.6.1-1.1.1h-2.8v.2zm3.9-4c0-.6-.1-1-.3-1.3-.2-.2-.5-.4-.9-.4h-1.1v4.9h1.1c.2 0 .4 0 .5-.1.1-.1.3-.1.4-.3.1-.1.2-.3.2-.5s.1-.5.1-.8V225zm1.9 4v-.7l.5-.1V225H63v-.7h1.6v4.1l.5.1v.7L63 229zm.5-5.3v-1.2h1.1v1.2h-1.1zm6.4 4.2c0 .3-.1.5-.2.7-.1.2-.2.3-.4.4-.2.1-.4.2-.7.2s-.5.1-.8.1c-.4 0-.8 0-1.1-.1-.3-.1-.6-.2-.8-.4v-1.3h.8l.1.7c.3.2.6.3 1 .3s.7 0 .9-.1c.2-.1.3-.3.3-.5v-.1c0-.2 0-.3-.1-.4-.1-.1-.2-.1-.4-.2-.2 0-.4-.1-.6-.1-.2 0-.5-.1-.8-.1-.4-.1-.6-.2-.8-.4-.2-.2-.3-.5-.3-.9v-.2c0-.3.1-.5.2-.7.1-.2.3-.3.4-.4.2-.1.4-.2.6-.2.2 0 .5-.1.8-.1.4 0 .8 0 1.1.1s.5.2.7.3v1.3H69l-.1-.8c-.1-.1-.2-.1-.4-.1H68c-.4 0-.6 0-.8.1-.2.1-.3.2-.3.5v.1c0 .1 0 .2.1.3 0 .1.1.1.3.2.1 0 .3.1.5.1s.3 0 .5.1c.2 0 .3.1.5.1s.3.1.5.1c.3.1.5.2.6.4s.2.4.2.7v.3h-.2zm4.7.3c-.2.4-.5.6-.8.8s-.7.3-1.1.3c-.7 0-1.3-.2-1.7-.5-.4-.4-.5-.9-.5-1.5v-1.1c0-.3 0-.6.1-.8.1-.2.2-.5.4-.6.2-.2.4-.3.6-.4.3-.1.6-.1.9-.1.4 0 .7 0 1 .1.3.1.6.2.8.5v1h-.8l-.1-.7c-.1-.1-.2-.2-.4-.2s-.3-.1-.5-.1c-.4 0-.7.1-.8.3-.2.2-.3.5-.3.9v1c0 .4.1.7.3.9.2.2.5.3.9.3.3 0 .5-.1.8-.2.2-.1.4-.3.6-.6l.6.7zm4.8-1c0 .7-.2 1.3-.5 1.6-.3.3-.9.5-1.6.5-.8 0-1.3-.2-1.6-.5-.3-.3-.5-.9-.5-1.6v-1c0-.7.2-1.2.5-1.6.3-.3.9-.5 1.6-.5.8 0 1.3.2 1.6.5.3.3.5.9.5 1.6v1zm-.9-.9c0-.2 0-.5-.1-.6 0-.2-.1-.3-.2-.4-.1-.1-.2-.2-.3-.2s-.3-.1-.5-.1-.4 0-.5.1c-.1 0-.3.1-.3.2-.1.1-.2.2-.2.4s-.1.4-.1.6v.9c0 .3 0 .5.1.6 0 .2.1.3.2.4.1.1.2.2.3.2s.3.1.5.1.4 0 .5-.1c.1 0 .3-.1.3-.2.1-.1.2-.2.2-.4s.1-.4.1-.6v-.9zm3.3 2.7l-1.4-4.1-.5-.1v-.7H82v.8l-.5.1 1 3.3 1.1-3.3-.5-.1v-.7h1.8v.7l-.5.1-1.4 4.1-1.2-.1zm4.7-2c0 .5.1.9.3 1.1.2.2.5.3 1 .3.4 0 .6-.1.8-.2.2-.1.4-.3.5-.5l.4.6c-.1.3-.4.5-.7.6-.3.1-.7.2-1.2.2-.4 0-.7-.1-1-.2-.3-.1-.5-.3-.7-.5-.2-.2-.3-.4-.4-.7-.1-.3-.1-.6-.1-.9v-.7c0-.4 0-.7.1-1 .1-.3.2-.5.4-.7.2-.2.4-.3.6-.4.3-.1.6-.1 1-.1s.8 0 1 .1c.3.1.5.2.6.4s.2.4.3.7c.1.3.1.6.1 1v.9h-3zm2.2-.7v-.6c0-.2-.1-.3-.1-.5l-.3-.3c-.1-.1-.3-.1-.6-.1-.2 0-.4 0-.6.1-.1.1-.3.2-.3.3-.1.1-.1.3-.2.5v.6h2.1zm1.6 2.7v-.7l.5-.1V225l-.5-.1v-.7h1.5v.7c.2-.3.4-.5.7-.6.3-.1.6-.2 1-.2h.3l-.1 1h-.4c-.3 0-.5 0-.8.1-.2.1-.5.3-.7.5v2.6l.6.1v.7h-2.1zm5.1 1.3c.2 0 .4-.1.5-.2.1-.1.3-.3.4-.6l.1-.3-1.5-4.3-.5-.1v-.7h2v.8l-.5.1 1 3.2L98 225l-.5-.1v-.7h1.8v.7h-.4l-1.6 4.4c-.1.3-.2.6-.3.8s-.2.4-.4.6c-.1.2-.3.3-.5.4-.2.1-.4.1-.7.1-.5 0-.9-.1-1.1-.4l.3-.8c.1.1.2.2.3.2.2.1.3.1.5.1zM107 229v-.7l.5-.1v-4.9l-1.6 5.7h-1.2l-1.6-5.7v4.9l.5.1v.7h-2v-.7l.5-.1v-5l-.5-.1v-.7h2.5l1.4 5.2 1.4-5.2h2.2v.7l-.5.1v5l.5.1v.7H107zm6.2-3.9l-.5-.1v-.7h1.9v.7l-.5.1v2.6c0 .6-.2 1-.5 1.3s-.8.4-1.6.4c-.7 0-1.2-.1-1.6-.4-.3-.3-.5-.7-.5-1.3v-2.6l-.5-.1v-.7h2v.7l-.5.1v2.6c0 .3.1.5.2.6.2.1.4.2.8.2s.7-.1.8-.2c.2-.1.2-.3.2-.6v-2.6h.3zm6.1 2.8c0 .3-.1.5-.2.7-.1.2-.2.3-.4.4-.2.1-.4.2-.7.2s-.5.1-.8.1c-.4 0-.8 0-1.1-.1-.3-.1-.6-.2-.8-.4v-1.3h.8l.1.7c.3.2.6.3 1 .3s.7 0 .9-.1c.2-.1.3-.3.3-.5v-.1c0-.2 0-.3-.1-.4-.1-.1-.2-.1-.4-.2-.2 0-.4-.1-.6-.1-.2 0-.5-.1-.8-.1-.4-.1-.6-.2-.8-.4-.2-.2-.3-.5-.3-.9v-.2c0-.3.1-.5.2-.7.1-.2.3-.3.4-.4.2-.1.4-.2.6-.2.2 0 .5-.1.8-.1.4 0 .8 0 1.1.1s.5.2.7.3v1.3h-.8l-.1-.8c-.1-.1-.2-.1-.4-.1h-.5c-.4 0-.6 0-.8.1-.2.1-.3.2-.3.5v.1c0 .1 0 .2.1.3 0 .1.1.1.3.2.1 0 .3.1.5.1s.3 0 .5.1c.2 0 .3.1.5.1s.3.1.5.1c.3.1.5.2.6.4s.2.4.2.7v.3h-.2zm1.7-.9c0 .5.1.9.3 1.1.2.2.5.3 1 .3.4 0 .6-.1.8-.2.2-.1.4-.3.5-.5l.4.6c-.1.3-.4.5-.7.6-.3.1-.7.2-1.2.2-.4 0-.7-.1-1-.2-.3-.1-.5-.3-.7-.5-.2-.2-.3-.4-.4-.7-.1-.3-.1-.6-.1-.9v-.7c0-.4 0-.7.1-1 .1-.3.2-.5.4-.7.2-.2.4-.3.6-.4.3-.1.6-.1 1-.1s.8 0 1 .1c.3.1.5.2.6.4.1.2.2.4.3.7.1.3.1.6.1 1v.9h-3zm2.1-.7v-.6c0-.2-.1-.3-.1-.5l-.3-.3c-.1-.1-.3-.1-.6-.1-.2 0-.4 0-.6.1-.1.1-.3.2-.3.3-.1.1-.1.3-.2.5v.6h2.1zm5.3-1.2l-.5-.1v-.7h1.9v.7l-.5.1v2.6c0 .6-.2 1-.5 1.3-.3.3-.8.4-1.6.4-.7 0-1.2-.1-1.6-.4-.3-.3-.5-.7-.5-1.3v-2.6l-.5-.1v-.7h2v.7l-.5.1v2.6c0 .3.1.5.2.6.2.1.4.2.8.2s.7-.1.8-.2c.2-.1.2-.3.2-.6v-2.6h.3zm8.2 3.9v-.7l.5-.1v-2.7c0-.2-.1-.4-.2-.5-.1-.1-.3-.2-.5-.2-.3 0-.5 0-.7.1s-.4.2-.6.4v2.8l.5.1v.7h-2.1v-.7l.5-.1v-2.7c0-.2-.1-.4-.2-.5-.1-.1-.3-.2-.5-.2-.3 0-.5 0-.8.1-.2.1-.4.2-.6.5v2.8l.5.1v.7h-2.1v-.7l.5-.1v-3.3l-.5-.1v-.7h1.5v.7c.3-.3.5-.5.8-.6.3-.1.6-.2 1-.2.7 0 1.1.3 1.2.8.3-.3.5-.5.8-.6.3-.1.6-.2 1-.2.9 0 1.3.4 1.3 1.3v2.9l.5.1v.7l-1.8.1z"/></svg>